<svg xmlns="http://www.w3.org/2000/svg" width="512" height="512" viewBox="0 0 519.479 519.479"><path d="M193.441 0h-75.484c-16.897 0-30.6 13.703-30.6 30.6v458.277c0 16.898 13.703 30.602 30.6 30.602h75.484c16.897 0 30.6-13.703 30.6-30.602V30.6c.001-16.897-13.702-30.6-30.6-30.6zm208.08 0h-75.484c-16.896 0-30.6 13.703-30.6 30.6v458.277c0 16.898 13.703 30.602 30.6 30.602h75.484c16.896 0 30.6-13.703 30.6-30.602V30.6c0-16.897-13.703-30.6-30.6-30.6z" fill="#fffdfd" data-original="#000000" xmlns="http://www.w3.org/2000/svg"/></svg>