<svg version="1.1" id="Capa_1" xmlns="http://www.w3.org/2000/svg" x="0" y="0" viewBox="0 0 314 314" xml:space="preserve"><path d="M91.47 0H75.343C58.538 0 44.867 13.671 44.867 30.476v253.048c0 16.805 13.671 30.477 30.476 30.477H91.47c16.805 0 30.477-13.672 30.477-30.477V30.476C121.946 13.671 108.274 0 91.47 0zm16.476 283.523c0 9.085-7.392 16.477-16.477 16.477H75.343c-9.085 0-16.476-7.392-16.476-16.477V30.476C58.867 21.391 66.258 14 75.343 14H91.47c9.085 0 16.477 7.391 16.477 16.476v253.047zM238.657 0H222.53c-16.805 0-30.477 13.671-30.477 30.476v253.048c0 16.805 13.672 30.477 30.477 30.477h16.127c16.805 0 30.476-13.672 30.476-30.477V30.476C269.133 13.671 255.462 0 238.657 0zm16.476 283.523c0 9.085-7.391 16.477-16.476 16.477H222.53c-9.085 0-16.477-7.392-16.477-16.477V30.476c0-9.085 7.392-16.476 16.477-16.476h16.127c9.085 0 16.476 7.391 16.476 16.476v253.047z"/></svg>